# AST/ASF file generated using VICON BodyLanguage
# -----------------------------------------------
:version 1.10
:name VICON
:units
  mass 1.0
  length 0.1
  angle deg
:documentation
   .ast/.asf automatically generated from VICON data using
   VICON BodyBuilder and BodyLanguage model FULLBODY5.MOD
:root
   order TX TY TZ RZ RY RX
   axis XYZ
   position 0 0 0  
   orientation 0 -0 0 
:bonedata
  begin
     id 1 
     name lhipjoint
     direction 0.969109 -0.218487 0.11442 
     length 0.544217 
     axis 0 -0 0  XYZ
  end
  begin
     id 2 
     name lfemur
     direction 0.173648 -0.984808 0  
     length 1.81499  
     axis 0 -0 10  XYZ
    dof rx ry rz
    limits (-180.0 180.0)
           (-180.0 180.0)
           (-180.0 180.0)
  end
  begin
     id 3 
     name ltibia
     direction 0.173515 -0.984831 0   
     length 1.55296   
     axis 0 -0 10   XYZ
    dof rx ry rz
    limits (-180.0 180.0)
           (-180.0 180.0)
           (-180.0 180.0)
  end
  begin
     id 4 
     name lfoot
     direction 7.36097e-012 -0.333012 0.942922   
     length 0.509062   
     axis -90 -1.73656e-015 10   XYZ
    dof rx ry rz
    limits (-180.0 180.0)
           (-180.0 180.0)
           (-180.0 180.0)
  end
  begin
     id 5 
     name ltoes
     direction 7.7847e-012 -4.42403e-011 1   
     length 0.249732   
     axis -90 -1.73656e-015 10   XYZ
    dof rx ry rz
    limits (-180.0 180.0)
           (-180.0 180.0)
           (-180.0 180.0)
  end
  begin
     id 6 
     name rhipjoint
     direction -0.966745 -0.226554 0.118645   
     length 0.524838  
     axis 0 -0 0  XYZ 
  end
  begin
     id 7 
     name rfemur
     direction -0.173648 -0.984808 0   
     length 1.84625   
     axis 0 -0 -10   XYZ
    dof rx ry rz
    limits (-180.0 180.0)
           (-180.0 180.0)
           (-180.0 180.0)
  end
  begin
     id 8 
     name rtibia
     direction -0.173714 -0.984796 0   
     length 1.577   
     axis 0 -0 -10   XYZ
    dof rx ry rz
    limits (-180.0 180.0)
           (-180.0 180.0)
           (-180.0 180.0)
 end
 begin
     id 9 
     name rfoot
     direction -0.0183819 -0.0406144 0.999006   
     length 0.490111  
     axis -90 1.73656e-015 -10   XYZ
    dof rx ry rz
    limits (-180.0 180.0)
           (-180.0 180.0)
           (-180.0 180.0)
  end
  begin
     id 10 
     name rtoes
     direction -7.79087e-012 -4.42375e-011 1   
     length 0.245053   
     axis -90 1.73656e-015 -10   XYZ
    dof rx ry rz
    limits (-180.0 180.0)
           (-180.0 180.0)
           (-180.0 180.0)
  end
  begin
     id 11 
     name lowerback
     direction -0.0664844 0.980601 0.184393   
     length 0.458979   
     axis 0 -0 0   XYZ
    dof rx ry rz
    limits (-180.0 180.0)
           (-180.0 180.0)
           (-180.0 180.0)
  end
  begin
     id 12 
     name upperback
     direction 0.0135995 0.999573 0.02588   
     length 0.463983   
     axis 0 -0 0   XYZ
    dof rx ry rz
    limits (-180.0 180.0)
           (-180.0 180.0)
           (-180.0 180.0)
  end
  begin
     id 13 
     name thorax
     direction 0.0468402 0.997311 -0.0563691   
     length 0.482746   
     axis 0 -0 0   XYZ
    dof rx ry rz
    limits (-180.0 180.0)
           (-180.0 180.0)
           (-180.0 180.0)
  end
  begin
     id 14 
     name lowerneck
     direction -0.00174311 0.988586 -0.150647   
     length 0.364383   
     axis 0 -0 0   XYZ
    dof rx ry rz
    limits (-180.0 180.0)
           (-180.0 180.0)
           (-180.0 180.0)
  end
  begin
     id 15 
     name upperneck
     direction -0.02653 0.999379 -0.0231908   
     length 0.361006   
     axis 0 -0 0   XYZ
    dof rx ry rz
    limits (-180.0 180.0)
           (-180.0 180.0)
           (-180.0 180.0)
  end
  begin
     id 16
     name head
     direction -0.00819207 0.999941 0.00714285  
     length 0.378714  
     axis 0 -0 0   XYZ
    dof rx ry rz
    limits (-180.0 180.0)
           (-180.0 180.0)
           (-180.0 180.0)
  end
  begin
     id 17 
     name lshoulderjoint
     direction 0.981627 -0.190809 0  
     length 0.612969  
     axis 0 -0 -11   XYZ
    dof rx ry rz
    limits (-180.0 180.0)
           (-180.0 180.0)
           (-180.0 180.0)
  end
  begin
     id 18 
     name lhumerus
     direction 0.48481 -0.87462 -9.72962e-027   
     length 1.19637   
     axis -180 5.14477e-009 -151   XYZ
    dof rx ry rz
    limits (-180.0 180.0)
           (-180.0 180.0)
           (-180.0 180.0)
  end
  begin
     id 19
     name lradius
     direction 0.48481 -0.87462 -2.35761e-026   
     length 0.637735   
     axis -180 5.14477e-009 -151   XYZ
    dof rx ry rz
    limits (-180.0 180.0)
           (-180.0 180.0)
           (-180.0 180.0)
  end
  begin
     id 20
     name lwrist
     direction 0.48481 -0.87462 -5.51856e-026   
     length 0.318868   
     axis -180 5.14477e-009 -151   XYZ
    dof rx ry rz
    limits (-180.0 180.0)
           (-180.0 180.0)
           (-180.0 180.0)
  end
  begin
     id 21 
     name lhand
     direction 0.477747 -0.861928 -0.169816   
     length 0.29526   
     axis -180 5.14477e-009 -151   XYZ
    dof rx ry rz
    limits (-180.0 180.0)
           (-180.0 180.0)
           (-180.0 180.0)
  end
  begin
     id 22 
     name rshoulderjoint
     direction -0.981627 -0.190809 0   
     length 0.572347  
     axis 0 -0 11   XYZ 
    dof rx ry rz
    limits (-180.0 180.0)
           (-180.0 180.0)
           (-180.0 180.0)
  end
  begin
     id 23 
     name rhumerus
     direction -0.48481 -0.87462 1.64836e-026  
     length 1.28846   
     axis 180 5.14477e-009 151   XYZ
    dof rx ry rz
    limits (-180.0 180.0)
           (-180.0 180.0)
           (-180.0 180.0)
  end
  begin
     id 24 
     name rradius
     direction -0.48481 -0.87462 2.86827e-026   
     length 0.62107   
     axis 180 5.14477e-009 151   XYZ
    dof rx ry rz
    limits (-180.0 180.0)
           (-180.0 180.0)
           (-180.0 180.0)
  end
  begin
     id 25 
     name rwrist
     direction -0.48481 -0.87462 5.20942e-026   
     length 0.310535   
     axis 180 5.14477e-009 151   XYZ
    dof rx ry rz
    limits (-180.0 180.0)
           (-180.0 180.0)
           (-180.0 180.0)
  end
  begin
     id 26
     name rhand
     direction -0.477664 -0.861515 -0.172133   
     length 0.291321   
     axis 180 5.14477e-009 151   XYZ
    dof rx ry rz
    limits (-180.0 180.0)
           (-180.0 180.0)
           (-180.0 180.0)
  end
:hierarchy
  begin
    root lhipjoint rhipjoint lowerback 
    lhipjoint lfemur
    lfemur ltibia
    ltibia lfoot
    lfoot ltoes
    rhipjoint rfemur
    rfemur rtibia
    rtibia rfoot
    rfoot rtoes
    lowerback upperback
    upperback thorax
    thorax lowerneck lshoulderjoint rshoulderjoint
    lowerneck upperneck
    upperneck head
    lshoulderjoint lhumerus
    lhumerus lradius
    lradius lwrist
    lwrist lhand
    rshoulderjoint rhumerus
    rhumerus rradius
    rradius rwrist
    rwrist rhand
  end

:FULLY-SPECIFIED
:DEGREES
1262
root -9.45431 3.76375 -0.573592 133.972 -70.6817 124.585
lowerback -22.9729 -0.804475 -14.2563
upperback -5.81499 1.80987 -2.04693
thorax 5.86624 0.514048 6.31682
lowerneck 16.0486 -1.53066 2.34335
upperneck 5.58227 -2.04635 -4.55087
head -1.01632 -1.05206 -1.74437
rshoulderjoint -2.35146 7.20965 -29.1181
rhumerus 344.744 -14.1834 -411.324
rradius 24.8259 -4.29375e-014 -9.06458e-014
rwrist 4.56254e-013 4.54522 -1.70696e-013
rhand 4.64944 -3.77475 32.1873
lshoulderjoint -2.01958 -5.62446 30.7885
lhumerus 360.973 12.3403 414.284
lradius 15.5414 -3.53091e-014 4.77083e-015
lwrist 4.94265e-013 -10.0868 1.13875e-013
lhand 9.96287 7.94537 -32.758
rfemur -26.1235 11.4573 3.44848
rtibia 63.5648 -1.54058e-014 2.22639e-014
rfoot -181.242 -40.6322 168.457
rtoes 1.49486e-013 -7.31528e-014 -2.05146e-013
lfemur -19.7422 0.370713 -22.8852
ltibia -5.68524e-014 -2.06736e-014 3.26007e-014
lfoot 0.555579 7.26029 12.0009
ltoes 6.52014e-014 -1.74409e-013 -5.64548e-014
1263
root -9.47673 3.76673 -0.571699 134.172 -70.8005 124.79
lowerback -22.8588 -0.859777 -14.2508
upperback -5.79513 1.72107 -2.00715
thorax 5.84737 0.473942 6.33257
lowerneck 16.0682 -1.49111 2.32718
upperneck 5.62104 -1.99966 -4.61627
head -1.00617 -1.02934 -1.76569
rshoulderjoint -2.37033 7.25296 -29.1528
rhumerus 344.745 -14.2626 -411.339
rradius 24.9019 -2.8625e-014 5.40694e-014
rwrist -3.86022e-013 4.47074 1.67489e-013
rhand 4.65093 -3.74814 32.1816
lshoulderjoint -2.00865 -5.58904 30.8044
lhumerus 361.367 11.0008 414.187
lradius 15.8947 -8.05078e-014 -3.10104e-014
lwrist -4.84099e-013 -9.76619 -9.07685e-014
lhand 9.5097 8.2381 -33.0275
rfemur -26.7416 11.0484 3.40367
rtibia 63.3834 -2.08724e-015 -1.59028e-015
rfoot -180.364 -41.1818 167.419
rtoes 7.63333e-014 6.36111e-015 4.92986e-014
lfemur -19.258 0.277228 -22.9776
ltibia 2.90226e-014 -4.77083e-015 0
lfoot 0.224518 7.04006 12.0247
ltoes 7.15625e-015 -3.19671e-014 3.81667e-014
1264
root -9.49773 3.76921 -0.57041 134.107 -70.8591 124.805
lowerback -22.7688 -0.913955 -14.2247
upperback -5.80681 1.62583 -1.93206
thorax 5.80629 0.433389 6.37481
lowerneck 16.0494 -1.45949 2.3426
upperneck 5.6579 -1.95716 -4.69833
head -0.991164 -1.0076 -1.79794
rshoulderjoint -2.37122 7.25002 -29.166
rhumerus 344.738 -14.3181 -411.311
rradius 24.994 -2.35361e-013 -8.82604e-014
rwrist 7.30577e-013 4.47732 -1.75466e-014
rhand 4.59813 -3.75614 32.1688
lshoulderjoint -2.00769 -5.57323 30.8473
lhumerus 361.77 10.1199 414.172
lradius 16.2457 -4.85035e-014 -8.50798e-014
lwrist 8.87001e-013 -9.5716 9.0716e-015
lhand 9.24509 8.24282 -33.1949
rfemur -27.4563 10.7181 3.43201
rtibia 63.0742 -9.93923e-015 9.54166e-015
rfoot -179.729 -41.6997 166.616
rtoes 2.38542e-013 -2.06736e-013 -2.91021e-013
lfemur -18.8878 0.170099 -22.9684
ltibia -4.8901e-014 -7.95139e-015 3.18055e-014
lfoot -0.075424 6.8032 12.0151
ltoes 1.91628e-013 -2.29509e-013 -4.73108e-014
1265
root -9.51867 3.77149 -0.568939 134.154 -70.918 124.867
lowerback -22.6798 -0.958578 -14.2536
upperback -5.81762 1.55578 -1.86686
thorax 5.75913 0.404547 6.44352
lowerneck 16.0677 -1.42665 2.30304
upperneck 5.63497 -1.92149 -4.72793
head -1.00056 -0.98954 -1.80278
rshoulderjoint -2.39173 7.29993 -29.1965
rhumerus 344.698 -14.4428 -411.259
rradius 25.086 -2.70347e-014 6.75868e-014
rwrist -1.49931e-013 4.41388 1.53121e-013
rhand 4.58888 -3.67482 32.1387
lshoulderjoint -2.00532 -5.55438 30.8875
lhumerus 362.169 9.61959 414.233
lradius 16.5945 -1.86858e-014 -5.96354e-014
lwrist -2.80534e-013 -9.47297 -1.46313e-013
lhand 9.15476 8.01015 -33.2781
rfemur -28.1322 10.4702 3.37754
rtibia 62.6514 7.55382e-015 1.43125e-014
rfoot -179.071 -42.1704 165.905
rtoes 2.16278e-013 -1.90833e-014 -1.65389e-013
lfemur -18.505 0.0751768 -23.0291
ltibia -2.42517e-014 -1.43125e-014 1.27222e-014
lfoot -0.399207 6.63206 12.0125
ltoes 1.63401e-013 -9.89451e-014 1.59028e-014
1266
root -9.53912 3.77358 -0.568045 134.105 -70.9549 124.905
lowerback -22.6215 -0.981479 -14.231
upperback -5.82811 1.507 -1.78197
thorax 5.7258 0.385812 6.51169
lowerneck 16.0629 -1.40594 2.27744
upperneck 5.61323 -1.89877 -4.75957
head -1.0064 -0.977511 -1.81003
rshoulderjoint -2.39413 7.29524 -29.2245
rhumerus 344.685 -14.4574 -411.225
rradius 25.1574 4.45278e-014 -2.01965e-013
rwrist 7.11346e-013 4.38496 -4.57749e-013
rhand 4.53212 -3.6759 32.1365
lshoulderjoint -2.02212 -5.59348 30.9123
lhumerus 362.544 9.00804 414.265
lradius 16.9806 -2.74323e-014 -1.16488e-013
lwrist 6.25388e-013 -9.37909 -1.08496e-013
lhand 8.97144 7.9513 -33.403
rfemur -28.7747 10.3139 3.4022
rtibia 62.0574 -3.67752e-014 1.82882e-014
rfoot -178.467 -42.6199 165.308
rtoes 8.26944e-014 -4.54819e-013 -2.38542e-013
lfemur -18.1501 -0.00828236 -23.0048
ltibia -8.09054e-014 -2.22639e-014 5.64548e-014
lfoot -0.820007 6.99782 12.148
ltoes 8.0309e-014 -3.00376e-013 -1.51474e-013
1267
root -9.55914 3.77548 -0.567357 134.051 -71.0006 124.879
lowerback -22.4751 -1.00664 -14.2779
upperback -5.91751 1.44311 -1.72964
thorax 5.55851 0.369403 6.57572
lowerneck 16.174 -1.39942 2.3256
upperneck 5.58608 -1.88401 -4.79808
head -1.03517 -0.967889 -1.83239
rshoulderjoint -2.38312 7.29628 -29.1437
rhumerus 344.579 -14.379 -411.124
rradius 25.2181 -5.08889e-014 -4.29375e-014
rwrist 3.63597e-013 4.27908 -6.21942e-014
rhand 4.47938 -3.63846 32.1538
lshoulderjoint -2.03854 -5.62811 30.948
lhumerus 362.785 8.72656 414.315
lradius 17.3407 6.59965e-014 -8.15017e-014
lwrist 5.19107e-013 -9.44552 -1.10431e-013
lhand 8.92341 7.82081 -33.456
rfemur -29.3774 10.1737 3.36912
rtibia 61.3347 1.80894e-014 7.55382e-015
rfoot -177.911 -43.0592 164.815
rtoes 1.65389e-013 5.08889e-014 -1.27222e-013
lfemur -17.8025 -0.109912 -23.0286
ltibia -1.13307e-014 0 7.15625e-015
lfoot -1.01091 6.49534 12.0317
ltoes 1.35571e-013 -5.16964e-014 8.26944e-014
1268
root -9.57839 3.77736 -0.567128 133.843 -70.9505 124.268
lowerback -22.5503 -1.13842 -14.7839
upperback -6.00313 1.37699 -1.75032
thorax 5.48951 0.336973 6.81901
lowerneck 16.2364 -1.38156 2.29219
upperneck 5.53595 -1.86684 -4.81434
head -1.06159 -0.95816 -1.83297
rshoulderjoint -2.38667 7.29782 -29.1654
rhumerus 344.524 -14.5438 -411.05
rradius 25.2472 2.06736e-014 3.18055e-015
rwrist -4.78466e-013 4.35726 1.75438e-014
rhand 4.48119 -3.57515 32.1071
lshoulderjoint -2.06026 -5.68282 30.9658
lhumerus 363.08 8.10225 414.329
lradius 17.6981 7.95139e-016 2.22639e-014
lwrist -3.51244e-013 -9.24637 -1.44002e-014
lhand 8.81026 7.77408 -33.5729
rfemur -30.1657 9.91811 2.88367
rtibia 60.5223 2.32578e-014 -1.70955e-014
rfoot -177.148 -43.4963 164.208
rtoes -1.17681e-013 3.65764e-013 2.57625e-013
lfemur -17.637 -0.32754 -23.4529
ltibia 2.16675e-014 9.54166e-015 -4.85035e-014
lfoot -1.267 6.2522 12.0561
ltoes -1.31198e-013 2.89294e-013 1.13307e-013
1269
root -9.59698 3.77913 -0.567262 133.226 -70.9253 123.942
lowerback -22.5734 -1.15399 -14.5949
upperback -6.04608 1.30728 -1.61816
thorax 5.47325 0.309375 6.84311
lowerneck 16.1823 -1.37328 2.35478
upperneck 5.49577 -1.84387 -4.87258
head -1.06715 -0.943047 -1.86494
rshoulderjoint -2.37234 7.27573 -29.1143
rhumerus 344.579 -14.3462 -411.001
rradius 25.2526 -1.11319e-013 -1.89243e-013
rwrist 8.61082e-014 4.21753 -2.53541e-013
rhand 4.44714 -3.58774 32.1763
lshoulderjoint -2.07353 -5.70307 31.0188
lhumerus 363.444 7.60744 414.382
lradius 18.0427 -1.74135e-013 -8.38871e-014
lwrist 1.80467e-013 -9.26852 -3.35858e-014
lhand 8.65828 7.79365 -33.6691
rfemur -30.7621 9.87173 3.12472
rtibia 59.5014 -1.41137e-014 2.18663e-014
rfoot -176.566 -43.9046 163.724
rtoes -2.54444e-014 -9.06458e-014 -6.67916e-014
lfemur -17.4451 -0.472136 -23.1835
ltibia -5.12864e-014 -3.18055e-015 3.18055e-014
lfoot -1.51688 6.12903 12.0969
ltoes 5.36719e-014 -1.57015e-013 -3.26007e-014
1270
root -9.61543 3.78039 -0.567452 133.018 -70.9524 123.767
lowerback -22.5398 -1.19061 -14.6686
upperback -6.07292 1.2629 -1.54299
thorax 5.4295 0.292634 6.95618
lowerneck 16.1944 -1.36799 2.35916
upperneck 5.45317 -1.83611 -4.91458
head -1.08403 -0.936901 -1.88024
rshoulderjoint -2.37893 7.30366 -29.0968
rhumerus 344.607 -14.3901 -410.948
rradius 25.2267 5.24792e-014 2.71142e-013
rwrist -2.20085e-013 4.32375 4.54523e-013
rhand 4.41817 -3.6488 32.2064
lshoulderjoint -2.08725 -5.72406 31.073
lhumerus 363.776 7.32058 414.495
lradius 18.3754 2.38542e-013 2.18663e-014
lwrist -2.771e-013 -9.21029 -1.59343e-013
lhand 8.67316 7.61109 -33.7012
rfemur -31.2729 9.85755 3.0664
rtibia 58.4165 1.86858e-014 -5.96354e-015
rfoot -176.018 -44.2622 163.419
rtoes 9.54166e-015 1.20861e-013 1.90833e-014
lfemur -17.1644 -0.59863 -23.179
ltibia 1.0635e-014 9.54166e-015 -1.27222e-014
lfoot -1.76639 6.02234 12.1141
ltoes -2.62396e-014 7.60351e-014 7.79236e-014
1271
root -9.63312 3.78163 -0.56799 132.781 -71.0099 123.552
lowerback -22.4744 -1.21407 -14.7532
upperback -6.07406 1.23883 -1.48342
thorax 5.39432 0.284929 7.06301
lowerneck 16.1041 -1.36802 2.36734
upperneck 5.45128 -1.83313 -4.95126
head -1.07014 -0.93423 -1.89395
rshoulderjoint -2.35464 7.25884 -29.0267
rhumerus 344.714 -14.3325 -410.872
rradius 25.1742 5.40694e-014 -7.79236e-014
rwrist 7.8465e-013 4.32454 -2.42412e-013
rhand 4.41407 -3.69105 32.2632
lshoulderjoint -2.09436 -5.74369 31.0728
lhumerus 364.143 6.58414 414.455
lradius 18.689 9.93923e-014 1.55052e-014
lwrist 8.98696e-013 -9.10412 9.97356e-014
lhand 8.48078 7.77978 -33.8239
rfemur -31.7303 9.85536 3.00766
rtibia 57.2368 -6.75868e-015 2.38542e-015
rfoot -175.638 -44.6062 163.415
rtoes -6.67916e-014 -1.24042e-013 -7.95139e-015
lfemur -16.8786 -0.748703 -23.1764
ltibia 2.04003e-014 3.18055e-015 1.27222e-014
lfoot -2.01191 5.9972 12.1449
ltoes -2.38542e-015 -6.1586e-014 -5.40694e-014
1272
root -9.65054 3.78282 -0.568709 132.513 -71.0578 123.297
lowerback -22.4308 -1.25512 -14.8613
upperback -6.08569 1.19817 -1.42444
thorax 5.36109 0.268723 7.17837
lowerneck 16.0531 -1.37079 2.41097
upperneck 5.43876 -1.82835 -4.99529
head -1.06707 -0.929632 -1.91667
rshoulderjoint -2.34243 7.24917 -28.9614
rhumerus 344.813 -14.3752 -410.808
rradius 25.1097 1.11319e-014 4.29375e-014
rwrist -9.56892e-014 4.32526 6.85772e-014
rhand 4.46708 -3.66411 32.2999
lshoulderjoint -2.10523 -5.75394 31.1359
lhumerus 364.462 6.46031 414.584
lradius 19.0035 3.65764e-014 7.51406e-014
lwrist 6.76541e-014 -9.15847 1.25971e-013
lhand 8.5424 7.67034 -33.7917
rfemur -32.159 9.93312 2.91255
rtibia 55.9409 4.57205e-015 -1.63003e-014
rfoot -175.216 -44.8992 163.324
rtoes 6.04305e-014 2.01965e-013 4.77083e-014
lfemur -16.6141 -0.904161 -23.1797
ltibia 7.59854e-014 0 -3.73715e-014
lfoot -2.23584 5.91063 12.1725
ltoes -9.81996e-014 2.14961e-013 9.02482e-014
